HIERARCHY
ROOT Pelvis
{
	OFFSET 0.000000 0.000000 0.000000
	CHANNELS 6 Xposition Yposition Zposition Xrotation Yrotation Zrotation
	JOINT LeftUpLeg_virtual
	{
		OFFSET 0.000000 0.000000 0.000000
		CHANNELS 3 Xrotation Yrotation Zrotation
		JOINT LeftUpLeg
		{
			OFFSET 18.735201 -5.666702 -4.541200
			CHANNELS 3 Xrotation Yrotation Zrotation
			JOINT LeftLeg
			{
				OFFSET -0.021200 -31.938179 0.493100
				CHANNELS 3 Xrotation Yrotation Zrotation
				JOINT LeftFoot
				{
					OFFSET 0.021200 -31.938179 -4.336299
					CHANNELS 3 Xrotation Yrotation Zrotation
					JOINT LeftToeBase
					{
						OFFSET 0.943001 -26.722000 15.023500
						CHANNELS 3 Xrotation Yrotation Zrotation
						End Site
						{
							OFFSET 0 0 0
						}
					}
				}
			}
		}
	}
	JOINT RightUpLeg_virtual
	{
		OFFSET 0.000000 0.000000 0.000000
		CHANNELS 3 Xrotation Yrotation Zrotation
		JOINT RightUpLeg
		{
			OFFSET -18.735201 -5.666702 -4.541200
			CHANNELS 3 Xrotation Yrotation Zrotation
			JOINT RightLeg
			{
				OFFSET 0.018946 -31.938133 0.493100
				CHANNELS 3 Xrotation Yrotation Zrotation
				JOINT RightFoot
				{
					OFFSET -0.018946 -31.938126 -4.336299
					CHANNELS 3 Xrotation Yrotation Zrotation
					JOINT RightToeBase
					{
						OFFSET -0.943001 -26.722004 15.023500
						CHANNELS 3 Xrotation Yrotation Zrotation
						End Site
						{
							OFFSET 0 0 0
						}
					}
				}
			}
		}
	}
	JOINT Hips_virtual
	{
		OFFSET 0.000000 0.000000 0.000000
		CHANNELS 3 Xrotation Yrotation Zrotation
		JOINT Hips
		{
			OFFSET -0.000000 -0.000000 -0.000000
			CHANNELS 3 Xrotation Yrotation Zrotation
			JOINT Spine
			{
				OFFSET 0.000000 10.199997 -0.299500
				CHANNELS 3 Xrotation Yrotation Zrotation
				JOINT Spine1
				{
					OFFSET 0.000000 11.900002 -1.516600
					CHANNELS 3 Xrotation Yrotation Zrotation
					JOINT Spine2
					{
						OFFSET 0.000000 13.600006 -2.842500
						CHANNELS 3 Xrotation Yrotation Zrotation
						JOINT Neck_virtual
						{
							OFFSET 0.000000 0.000000 0.000000
							CHANNELS 3 Xrotation Yrotation Zrotation
							JOINT Neck
							{
								OFFSET 0.000000 9.624100 -2.890100
								CHANNELS 3 Xrotation Yrotation Zrotation
								JOINT Head
								{
									OFFSET 0.000000 14.068802 -1.351900
									CHANNELS 3 Xrotation Yrotation Zrotation
									End Site
									{
										OFFSET 0 0 0
									}
								}
							}
						}
						JOINT LeftShoulder_virtual
						{
							OFFSET 0.000000 0.000000 0.000000
							CHANNELS 3 Xrotation Yrotation Zrotation
							JOINT LeftShoulder
							{
								OFFSET 15.263000 10.923401 -0.547700
								CHANNELS 3 Xrotation Yrotation Zrotation
								JOINT LeftArm
								{
									OFFSET 25.438599 -2.830597 -13.032500
									CHANNELS 3 Xrotation Yrotation Zrotation
									JOINT LeftForeArm
									{
										OFFSET 29.960503 0.000000 0.000000
										CHANNELS 3 Xrotation Yrotation Zrotation
										JOINT LeftHand
										{
											OFFSET 27.849251 0.000000 0.000000
											CHANNELS 3 Xrotation Yrotation Zrotation
											End Site
											{
												OFFSET 0 0 0
											}
										}
									}
								}
							}
						}
						JOINT RightShoulder_virtual
						{
							OFFSET 0.000000 0.000000 0.000000
							CHANNELS 3 Xrotation Yrotation Zrotation
							JOINT RightShoulder
							{
								OFFSET -15.263000 10.923401 -0.547700
								CHANNELS 3 Xrotation Yrotation Zrotation
								JOINT RightArm
								{
									OFFSET -25.438599 -2.830597 -13.032500
									CHANNELS 3 Xrotation Yrotation Zrotation
									JOINT RightForeArm
									{
										OFFSET -29.960503 0.000000 0.000000
										CHANNELS 3 Xrotation Yrotation Zrotation
										JOINT RightHand
										{
											OFFSET -27.849251 0.000000 0.000000
											CHANNELS 3 Xrotation Yrotation Zrotation
											End Site
											{
												OFFSET 0 0 0
											}
										}
									}
								}
							}
						}
					}
				}
			}
		}
	}
}
MOTION
Frames: 11
Frame Time: 0.03333333
0.091893 41.639072 -4.004669 0.000000 0.000000 0.000000 0.705541 -0.588618 1.148338 -23.713930 -9.892685 13.831826 103.924094 -2.453883 -0.817086 37.385023 -2.548223 -23.830530 0.000000 0.000000 0.000000 1.652965 1.021155 0.565571 -27.799652 3.994517 -18.388689 110.030051 6.320103 -0.380276 30.821314 3.656465 20.346005 0.000000 0.000000 0.000000 0.603918 0.665646 1.381367 -2.520529 -0.100218 -1.711819 1.970757 0.183653 0.663931 -0.640548 0.404339 -0.328673 0.000000 0.000000 0.000000 -0.028367 0.480886 -0.394078 0.907675 -0.298946 -0.109973 0.000000 0.000000 0.000000 0.577493 0.421637 -0.658384 0.528793 -3.002929 -21.518741 9.127418 -16.438022 -56.269547 0.106336 -27.046067 -0.376384 0.000000 0.000000 0.000000 0.078020 0.742041 -0.409007 0.623896 9.983390 21.640855 10.000365 7.850023 55.953176 0.842266 22.858722 -0.035591 0.000000 0.000000 0.000000 
0.086854 41.654629 -4.012936 0.000000 0.000000 0.000000 0.717776 -0.683471 1.135322 -23.794234 -9.889953 13.858781 103.934360 -2.445016 -0.852604 37.767333 -2.483040 -23.817392 0.000000 0.000000 0.000000 1.687773 0.865104 0.560209 -27.857188 3.986507 -18.403419 109.929777 6.307252 -0.335722 30.766102 3.641746 20.362553 0.000000 0.000000 0.000000 0.652833 0.562511 1.358860 -2.508920 -0.052131 -1.724936 1.933144 0.175839 0.648901 -0.638818 0.400390 -0.300936 0.000000 0.000000 0.000000 -0.015334 0.478732 -0.366351 0.908484 -0.293787 -0.110346 0.000000 0.000000 0.000000 0.574894 0.422565 -0.622245 0.558503 -2.832944 -21.503165 9.200662 -15.928935 -56.425617 0.153815 -27.736951 -0.353632 0.000000 0.000000 0.000000 0.067975 0.739754 -0.389077 0.636361 9.836044 21.641345 10.023784 7.505529 55.917662 0.820916 22.907114 0.018312 0.000000 0.000000 0.000000 
0.071065 41.641819 -4.043930 0.000000 0.000000 0.000000 0.736107 -0.854848 1.075100 -23.751918 -9.956693 13.913672 103.975225 -2.524201 -0.760087 38.041039 -2.443894 -23.846028 0.000000 0.000000 0.000000 1.729566 0.651307 0.497259 -28.056908 3.955879 -18.405406 109.960008 6.218363 -0.249579 30.912958 3.558310 20.307759 0.000000 0.000000 0.000000 0.702663 0.390601 1.289304 -2.493937 -0.001808 -1.732181 1.872151 0.143981 0.654308 -0.633092 0.408371 -0.273752 0.000000 0.000000 0.000000 -0.004327 0.484128 -0.334021 0.939947 -0.291919 -0.100505 0.000000 0.000000 0.000000 0.558672 0.431066 -0.590005 0.601829 -2.495643 -21.519860 9.504907 -14.745216 -56.613249 0.234792 -29.485739 -0.305246 0.000000 0.000000 0.000000 0.045930 0.745371 -0.371273 0.630031 9.582192 21.734447 9.908950 6.821920 55.798657 0.792777 22.799342 0.065089 0.000000 0.000000 0.000000 
0.055519 41.608242 -4.053070 0.000000 0.000000 0.000000 0.774875 -1.113371 0.972337 -23.563147 -10.052877 13.994358 104.083368 -2.689532 -0.555706 37.987979 -2.380284 -23.926064 0.000000 0.000000 0.000000 1.778809 0.383197 0.375247 -28.326101 3.990436 -18.364789 110.065152 6.091760 -0.164899 31.202664 3.450878 20.224810 0.000000 0.000000 0.000000 0.749129 0.181482 1.179689 -2.499203 0.013154 -1.757699 1.793782 0.094568 0.673368 -0.633242 0.421230 -0.248136 0.000000 0.000000 0.000000 -0.010031 0.495075 -0.299568 1.001119 -0.293343 -0.081378 0.000000 0.000000 0.000000 0.532319 0.445215 -0.559543 0.652116 -2.059503 -21.527744 9.933928 -13.061656 -56.826686 0.316387 -31.779566 -0.241804 0.000000 0.000000 0.000000 0.013435 0.756748 -0.355382 0.604561 9.268492 21.875578 9.595828 5.893251 55.569654 0.767787 22.482230 0.097680 0.000000 0.000000 0.000000 
0.047806 41.570976 -4.060787 0.000000 0.000000 0.000000 0.839909 -1.414595 0.839929 -23.291746 -10.053592 14.121446 104.177925 -2.930835 -0.384254 37.643577 -2.308208 -24.079721 0.000000 0.000000 0.000000 1.846845 0.097306 0.221706 -28.606550 4.123643 -18.283949 110.141315 5.952613 -0.121488 31.467122 3.376068 20.196133 0.000000 0.000000 0.000000 0.802121 -0.056856 1.039087 -2.523359 -0.030273 -1.812953 1.709329 0.047554 0.686312 -0.648703 0.436522 -0.221580 0.000000 0.000000 0.000000 -0.047322 0.508754 -0.262863 1.091160 -0.295424 -0.056777 0.000000 0.000000 0.000000 0.494524 0.462153 -0.523309 0.696917 -1.599826 -21.488629 10.351195 -11.073155 -57.081537 0.393168 -34.164145 -0.167466 0.000000 0.000000 0.000000 -0.037667 0.766837 -0.338020 0.561555 8.915577 22.047215 9.054672 4.832513 55.222151 0.745211 21.905738 0.112199 0.000000 0.000000 0.000000 
0.063236 41.528603 -4.084377 0.000000 0.000000 0.000000 0.947449 -1.717148 0.686223 -23.148906 -9.903353 14.289023 104.298245 -3.219551 -0.366382 37.319273 -2.173578 -24.238536 0.000000 0.000000 0.000000 1.959685 -0.171746 0.054818 -28.905173 4.284390 -18.188000 110.165842 5.827222 -0.091253 31.633673 3.350633 20.243371 0.000000 0.000000 0.000000 0.866911 -0.306088 0.876242 -2.542698 -0.103100 -1.824322 1.649154 0.027025 0.680991 -0.677875 0.453373 -0.192277 0.000000 0.000000 0.000000 -0.120088 0.521624 -0.223037 1.207479 -0.297497 -0.030743 0.000000 0.000000 0.000000 0.452060 0.471865 -0.478071 0.724609 -1.200414 -21.389526 10.673642 -8.967580 -57.380781 0.440197 -36.248019 -0.104517 0.000000 0.000000 0.000000 -0.101718 0.776325 -0.314490 0.498967 8.570434 22.229885 8.364684 3.755923 54.745021 0.718942 21.158645 0.123745 0.000000 0.000000 0.000000 
0.082667 41.468491 -4.130417 0.000000 0.000000 0.000000 1.102793 -1.960287 0.513496 -23.299739 -9.586034 14.477568 104.551734 -3.498627 -0.527584 37.381970 -1.893067 -24.304695 0.000000 0.000000 0.000000 2.132616 -0.423332 -0.131495 -29.304472 4.368815 -18.099279 110.220935 5.714887 0.004163 31.769638 3.294758 20.260880 0.000000 0.000000 0.000000 0.981559 -0.543634 0.695421 -2.550785 -0.158957 -1.841451 1.648942 0.055467 0.651755 -0.715792 0.474701 -0.158736 0.000000 0.000000 0.000000 -0.217577 0.535056 -0.181507 1.343092 -0.298695 -0.005844 0.000000 0.000000 0.000000 0.406084 0.481830 -0.425059 0.729155 -0.910493 -21.242471 10.897498 -6.907725 -57.709320 0.446397 -37.994293 -0.056367 0.000000 0.000000 0.000000 -0.176961 0.783362 -0.279407 0.413559 8.279419 22.424997 7.689424 2.765226 54.131875 0.673589 20.389453 0.158335 0.000000 0.000000 0.000000 
0.095180 41.389668 -4.213108 0.000000 0.000000 0.000000 1.304120 -2.146183 0.331287 -23.736552 -9.224282 14.619598 104.922381 -3.752151 -0.760206 37.731734 -1.507235 -24.305054 0.000000 0.000000 0.000000 2.378250 -0.626530 -0.324541 -29.872242 4.372803 -17.997658 110.378746 5.585484 0.156425 32.005508 3.162826 20.123517 0.000000 0.000000 0.000000 1.185675 -0.780622 0.509369 -2.508200 -0.169384 -1.872798 1.738382 0.144770 0.601007 -0.755500 0.504611 -0.122806 0.000000 0.000000 0.000000 -0.319616 0.554059 -0.137674 1.484535 -0.299611 0.017365 0.000000 0.000000 0.000000 0.361753 0.494766 -0.370393 0.707496 -0.783571 -21.075054 11.019673 -5.061369 -57.997226 0.436499 -39.497403 -0.012104 0.000000 0.000000 0.000000 -0.258404 0.794644 -0.238769 0.303348 8.086648 22.642909 7.193716 1.952542 53.384308 0.608243 19.797602 0.229134 0.000000 0.000000 0.000000 
0.108692 41.295532 -4.346836 0.000000 0.000000 0.000000 1.614516 -2.345208 0.158114 -24.303106 -9.077940 14.628057 105.359315 -4.047942 -0.849557 37.947558 -1.155136 -24.356579 0.000000 0.000000 0.000000 2.741278 -0.804635 -0.509292 -30.564721 4.466493 -17.820075 110.579048 5.451686 0.256354 32.346195 3.050847 19.854465 0.000000 0.000000 0.000000 1.510318 -1.025669 0.330282 -2.495923 -0.161478 -1.871723 1.942517 0.295019 0.535960 -0.788497 0.546507 -0.086719 0.000000 0.000000 0.000000 -0.408571 0.590717 -0.092529 1.617676 -0.298028 0.040148 0.000000 0.000000 0.000000 0.318964 0.521498 -0.321536 0.662232 -0.839241 -20.883524 10.946578 -3.630531 -58.134103 0.417332 -40.904405 0.033475 0.000000 0.000000 0.000000 -0.337468 0.822488 -0.197997 0.159424 8.044581 22.860261 6.929917 1.391441 52.544358 0.521737 19.528218 0.338196 0.000000 0.000000 0.000000 
0.122940 41.197601 -4.526428 0.000000 0.000000 0.000000 2.083212 -2.561959 0.011007 -24.914947 -9.171151 14.516923 105.877091 -4.418878 -0.761933 37.993887 -0.906356 -24.518842 0.000000 0.000000 0.000000 3.260941 -0.999599 -0.671871 -31.367756 4.789628 -17.563075 110.795811 5.363297 0.230264 32.672029 3.123875 19.633881 0.000000 0.000000 0.000000 1.977814 -1.285289 0.166560 -2.496016 -0.160328 -1.890017 2.259140 0.504996 0.456408 -0.811949 0.610962 -0.059912 0.000000 0.000000 0.000000 -0.474251 0.649558 -0.056270 1.730423 -0.292731 0.063207 0.000000 0.000000 0.000000 0.274370 0.569134 -0.287471 0.606769 -1.063166 -20.679043 10.520864 -2.831589 -58.047251 0.423702 -42.190622 0.103945 0.000000 0.000000 0.000000 -0.409221 0.875087 -0.163968 -0.022049 8.186929 23.028929 6.839697 1.180469 51.681262 0.424777 19.548037 0.457482 0.000000 0.000000 0.000000 
0.141760 41.095154 -4.745216 0.000000 0.000000 0.000000 2.705803 -2.762639 -0.111363 -25.692026 -9.226691 14.392624 106.481386 -4.817175 -0.703285 38.026142 -0.706786 -24.759577 0.000000 0.000000 0.000000 3.913573 -1.197234 -0.800139 -32.427440 5.297070 -17.319534 111.131508 5.327395 0.106730 32.995469 3.457393 19.573114 0.000000 0.000000 0.000000 2.602833 -1.564546 0.024901 -2.506637 -0.148369 -1.867466 2.664709 0.759695 0.363733 -0.815271 0.692233 -0.050925 0.000000 0.000000 0.000000 -0.517929 0.730037 -0.036205 1.811865 -0.284152 0.085300 0.000000 0.000000 0.000000 0.228870 0.637106 -0.272776 0.557877 -1.410820 -20.418700 9.588891 -2.786684 -57.724872 0.433941 -43.017593 0.179564 0.000000 0.000000 0.000000 -0.463168 0.952438 -0.142745 -0.238163 8.522255 23.113446 6.877758 1.368919 50.872120 0.336485 19.800662 0.566890 0.000000 0.000000 0.000000 
